<svg width="32" height="32" version="1.1" viewBox="0 0 8.4667 8.4667" xmlns="http://www.w3.org/2000/svg"><g transform="translate(-29.574 -56.489)"><circle cx="33.807" cy="60.723" r="3.8365" fill="#fff" stroke-linecap="round" stroke-width=".7349"/><path d="m35.924 62.972a0.39687 0.39687 0 0 1-0.39688 0.39688 0.39687 0.39687 0 0 1-0.39688-0.39688 0.39687 0.39687 0 0 1 0.39688-0.39688 0.39687 0.39687 0 0 1 0.39688 0.39688zm-3.4396 0a0.39687 0.39687 0 0 1-0.39688 0.39688 0.39687 0.39687 0 0 1-0.39688-0.39688 0.39687 0.39687 0 0 1 0.39688-0.39688 0.39687 0.39687 0 0 1 0.39688 0.39688zm-0.85912-1.1904a0.33073 0.33073 0 0 0-0.33203 0.33008 0.33073 0.33073 0 0 0 0.33203 0.33203h4.3652a0.33073 0.33073 0 0 0 0.33008-0.33203 0.33073 0.33073 0 0 0-0.33008-0.33008zm-7.37e-4 0.33047h4.3656m-1.2574-4.0356a0.26457 0.26457 0 0 0-0.26367 0.26562v3.4395a0.26457 0.26457 0 0 0 0.26367 0.26367 0.26457 0.26457 0 0 0 0.26562-0.26367v-3.4395a0.26457 0.26457 0 0 0-0.26562-0.26562zm6.48e-4 0.26522v3.4396m-0.5944-3.572a0.13229 0.13229 0 0 0-0.13281 0.13281 0.13229 0.13229 0 0 0 0.13281 0.13281h1.1895a0.13229 0.13229 0 0 0 0.13281-0.13281 0.13229 0.13229 0 0 0-0.13281-0.13281zm-9.05e-4 0.13242h1.1907"/><path d="m31.544 57.574 5.2997 5.2997m0.79958-2.1514a3.8365 3.8365 0 0 1-3.8365 3.8365 3.8365 3.8365 0 0 1-3.8365-3.8365 3.8365 3.8365 0 0 1 3.8365-3.8365 3.8365 3.8365 0 0 1 3.8365 3.8365z" fill="none" stroke="#c6302d" stroke-width=".79375"/></g></svg>
