<svg width="755.91" height="226.72" version="1.1" viewBox="0 0 755.91 226.72" xmlns="http://www.w3.org/2000/svg"><g fill="#1ed760"><path transform="matrix(.13333 0 0 -.13333 0 226.72)" d="m1375.3 945.23c-269.94 160.31-715.2 175.05-972.89 96.836-41.383-12.55-85.141 10.81-97.68 52.19-12.539 41.4 10.797 85.13 52.207 97.71 295.81 89.8 787.55 72.45 1098.3-112.02 37.23-22.09 49.44-70.16 27.37-107.33-22.08-37.215-70.19-49.484-107.32-27.387zm-8.84-237.44c-18.93-30.734-59.11-40.363-89.8-21.504-225.05 138.34-568.22 178.41-834.47 97.594-34.527-10.434-70.996 9.031-81.48 43.496-10.407 34.527 9.07 70.93 43.535 81.43 304.16 92.291 682.26 47.589 940.74-111.26 30.69-18.899 40.35-59.102 21.48-89.758zm-102.47-228.03c-15.04-24.672-47.18-32.41-71.76-17.371-196.66 120.19-444.18 147.34-735.68 80.75-28.094-6.442-56.086 11.168-62.496 39.25-6.433 28.089 11.102 56.078 39.258 62.488 319 72.926 592.63 41.539 813.36-93.34 24.61-15.027 32.36-47.18 17.31-71.777zm-384.05 1207.9c-462.49 0-837.43-374.92-837.43-837.42 0-462.54 374.94-837.45 837.43-837.45 462.51 0 837.43 374.91 837.43 837.45 0 462.5-374.92 837.42-837.43 837.42"/><path transform="matrix(.13333 0 0 -.13333 0 226.72)" d="m2320.9 914.54c-144.59 34.481-170.34 58.684-170.34 109.52 0 48.05 45.24 80.37 112.5 80.37 65.2 0 129.84-24.55 197.63-75.09 2.05-1.53 4.62-2.14 7.15-1.74 2.53 0.38 4.76 1.76 6.25 3.86l70.6 99.52c2.9 4.09 2.11 9.75-1.8 12.88-80.67 64.73-171.51 96.2-277.69 96.2-156.12 0-265.17-93.68-265.17-227.74 0-143.75 94.07-194.65 256.63-233.94 138.36-31.871 161.71-58.567 161.71-106.3 0-52.887-47.22-85.769-123.21-85.769-84.39 0-153.24 28.429-230.25 95.121-1.91 1.64-4.53 2.398-6.95 2.261-2.54-0.211-4.87-1.39-6.49-3.339l-79.16-94.211c-3.32-3.911-2.9-9.75 0.93-13.129 89.61-79.992 199.8-122.25 318.72-122.25 168.23 0 276.94 91.929 276.94 234.2 0 120.24-71.84 186.73-248 229.58"/><path transform="matrix(.13333 0 0 -.13333 0 226.72)" d="m3071.6 753.39c0-101.53-62.54-172.38-152.09-172.38-88.53 0-155.31 74.066-155.31 172.38 0 98.297 66.78 172.38 155.31 172.38 88.11 0 152.09-72.477 152.09-172.38zm-122.12 303.75c-72.92 0-132.73-28.72-182.05-87.57v66.24c0 5.23-4.24 9.49-9.47 9.49h-129.46c-5.23 0-9.46-4.26-9.46-9.49v-736.02c0-5.23 4.23-9.488 9.46-9.488h129.46c5.23 0 9.47 4.258 9.47 9.488v232.32c49.33-55.359 109.15-82.398 182.05-82.398 135.49 0 272.65 104.3 272.65 303.68 0 199.42-137.16 303.75-272.65 303.75"/><path transform="matrix(.13333 0 0 -.13333 0 226.72)" d="m3573.7 579.95c-92.81 0-162.78 74.571-162.78 173.44 0 99.285 67.55 171.34 160.64 171.34 93.41 0 163.85-74.567 163.85-173.5 0-99.274-68.01-171.27-161.71-171.27zm0 477.19c-174.49 0-311.19-134.36-311.19-305.92 0-169.69 135.76-302.64 309.05-302.64 175.11 0 312.23 133.91 312.23 304.81 0 170.33-136.18 303.75-310.09 303.75"/><path transform="matrix(.13333 0 0 -.13333 0 226.72)" d="m4256.4 1045.3h-142.47v145.66c0 5.23-4.22 9.48-9.45 9.48h-129.45c-5.24 0-9.5-4.25-9.5-9.48v-145.66h-62.25c-5.22 0-9.43-4.26-9.43-9.49v-111.27c0-5.227 4.21-9.484 9.43-9.484h62.25v-287.92c0-116.35 57.91-175.34 172.12-175.34 46.44 0 84.97 9.59 121.28 30.179 2.95 1.649 4.79 4.829 4.79 8.211v105.96c0 3.274-1.71 6.352-4.5 8.071-2.82 1.769-6.33 1.859-9.22 0.429-24.94-12.546-49.05-18.339-76-18.339-41.53 0-60.07 18.851-60.07 61.121v267.63h142.47c5.23 0 9.44 4.257 9.44 9.484v111.27c0 5.23-4.21 9.49-9.44 9.49"/><path transform="matrix(.13333 0 0 -.13333 0 226.72)" d="m4752.8 1044.7v17.89c0 52.63 20.18 76.1 65.44 76.1 26.99 0 48.67-5.36 72.95-13.46 2.99-0.94 6.11-0.47 8.54 1.32 2.5 1.79 3.91 4.66 3.91 7.7v109.1c0 4.17-2.68 7.86-6.69 9.08-25.65 7.63-58.47 15.47-107.61 15.47-119.59 0-182.79-67.34-182.79-194.67v-27.4h-62.2c-5.22 0-9.5-4.25-9.5-9.48v-111.84c0-5.227 4.28-9.484 9.5-9.484h62.2v-444.1c0-5.231 4.22-9.481 9.44-9.481h129.46c5.23 0 9.49 4.25 9.49 9.481v444.1h120.88l185.17-443.98c-21.02-46.648-41.69-55.93-69.91-55.93-22.81 0-46.83 6.813-71.39 20.25-2.31 1.274-5.04 1.481-7.54 0.711-2.47-0.879-4.55-2.711-5.6-5.121l-43.88-96.269c-2.09-4.547-0.31-9.891 4.07-12.25 45.81-24.809 87.17-35.399 138.27-35.399 95.6 0 148.44 44.539 195.03 164.34l224.61 580.4c1.12 2.92 0.79 6.21-1 8.81-1.78 2.56-4.65 4.11-7.79 4.11h-134.78c-4.03 0-7.65-2.56-8.97-6.35l-138.07-394.38-151.23 394.64c-1.38 3.67-4.91 6.09-8.84 6.09h-221.17"/><path transform="matrix(.13333 0 0 -.13333 0 226.72)" d="m4465 1045.3h-129.47c-5.23 0-9.48-4.26-9.48-9.49v-564.85c0-5.231 4.25-9.481 9.48-9.481h129.47c5.22 0 9.48 4.25 9.48 9.481v564.85c0 5.23-4.26 9.49-9.48 9.49"/><path transform="matrix(.13333 0 0 -.13333 0 226.72)" d="m4401 1302.5c-51.28 0-92.91-41.53-92.91-92.81 0-51.32 41.63-92.89 92.91-92.89 51.27 0 92.85 41.57 92.85 92.89 0 51.28-41.58 92.81-92.85 92.81"/><path transform="matrix(.13333 0 0 -.13333 0 226.72)" d="m5540.5 989.11h-23.72v-30.25h23.72c11.84 0 18.91 5.793 18.91 15.133 0 9.84-7.07 15.117-18.91 15.117zm15.38-43.152 25.77-36.086h-21.73l-23.2 33.098h-19.94v-33.098h-18.19v95.645h42.65c22.21 0 36.83-11.372 36.83-30.508 0-15.676-9.06-25.258-22.19-29.051zm-20.2 91.379c-46.67 0-81.99-37.09-81.99-82.527 0-45.407 35.07-82.008 81.51-82.008 46.66 0 82.01 37.07 82.01 82.527 0 45.408-35.09 82.008-81.53 82.008zm-0.48-173.65c-51.24 0-91.11 41.153-91.11 91.122 0 49.977 40.39 91.597 91.59 91.597 51.23 0 91.11-41.15 91.11-91.078 0-49.977-40.36-91.641-91.59-91.641"/></g></svg>
