<svg width="226.73" height="226.73" version="1.1" viewBox="0 0 226.73 226.73" xmlns="http://www.w3.org/2000/svg"><g transform="matrix(1.3333 0 0 -1.3333 0 226.73)"><g transform="scale(.1)"><path d="m1345.6 945.28c-269.94 160.31-715.2 175.05-972.89 96.839-41.383-12.56-85.145 10.81-97.68 52.18-12.543 41.41 10.793 85.14 52.207 97.72 295.81 89.79 787.56 72.45 1098.3-112.02 37.22-22.1 49.43-70.17 27.37-107.33-22.08-37.219-70.19-49.488-107.32-27.391zm-8.84-237.44c-18.94-30.731-59.12-40.371-89.81-21.5-225.05 138.34-568.22 178.41-834.47 97.59-34.527-10.434-70.996 9.035-81.484 43.496-10.403 34.527 9.074 70.929 43.539 81.429 304.15 92.295 682.26 47.59 940.74-111.25 30.69-18.903 40.35-59.102 21.48-89.762zm-102.47-228.03c-15.05-24.68-47.18-32.411-71.77-17.368-196.65 120.19-444.17 147.33-735.67 80.75-28.09-6.441-56.086 11.161-62.492 39.25-6.434 28.079 11.102 56.079 39.254 62.489 319 72.925 592.63 41.539 813.36-93.34 24.61-15.031 32.36-47.18 17.32-71.781zm-384.06 1207.9c-462.5 0-837.43-374.93-837.43-837.42 0-462.54 374.94-837.44 837.43-837.44 462.51 0 837.43 374.9 837.43 837.44 0 462.49-374.92 837.42-837.43 837.42" fill="#fff"/></g></g></svg>
